<?xml version="1.0" standalone="no"?>
<!DOCTYPE svg PUBLIC "-//W3C//DTD SVG 20010904//EN"
 "http://www.w3.org/TR/2001/REC-SVG-20010904/DTD/svg10.dtd">
<svg version="1.0" xmlns="http://www.w3.org/2000/svg"
 width="150.000000px" height="150.000000px" viewBox="0 0 150.000000 250.000000"
 preserveAspectRatio="xMidYMid meet">

<g transform="translate(0.000000,150.000000) scale(0.100000,-0.100000)"
fill="#000000" stroke="none">
<path d="M328 1215 c-28 -15 -44 -47 -33 -65 10 -16 32 -11 38 8 5 23 35 32
65 21 19 -7 22 -16 22 -59 l0 -51 33 3 c28 3 32 7 35 35 9 87 -84 149 -160
108z"/>
<path d="M644 1153 c-3 -10 -10 -26 -16 -37 -6 -12 -6 -22 1 -29 6 -6 11 -26
11 -45 0 -29 3 -33 23 -30 18 2 23 10 25 41 2 24 8 37 18 37 8 0 14 5 14 10 0
6 -7 10 -15 10 -8 0 -15 7 -15 15 0 8 7 15 15 15 8 0 15 7 15 15 0 23 -69 20
-76 -2z"/>
<path d="M365 1148 c-2 -7 -6 -33 -7 -58 -3 -43 -4 -45 -33 -42 l-30 3 33 -31
c28 -27 32 -38 32 -80 0 -52 -12 -69 -36 -49 -30 25 -27 -3 3 -32 36 -33 35
-56 -3 -65 -48 -12 -22 -24 51 -24 43 0 75 4 75 10 0 6 -8 10 -18 10 -30 0
-42 22 -42 76 0 47 3 55 32 78 18 14 29 28 25 32 -3 4 -13 1 -21 -5 -27 -23
-36 -2 -36 89 0 80 -12 123 -25 88z"/>
<path d="M1166 1128 c-10 -18 -12 -34 -7 -37 5 -4 11 -22 13 -41 3 -31 6 -35
35 -38 23 -2 34 2 42 16 12 22 5 33 -15 25 -9 -3 -14 2 -14 16 0 12 6 21 15
21 8 0 15 5 15 10 0 6 -7 13 -15 16 -8 4 -15 15 -15 25 0 32 -37 23 -54 -13z"/>
<path d="M740 1064 c0 -51 1 -54 25 -54 23 0 25 4 25 40 0 38 1 40 25 34 21
-5 25 -3 25 14 0 18 -6 21 -50 20 l-50 0 0 -54z"/>
<path d="M864 1095 c-23 -35 -12 -69 27 -86 27 -10 36 -10 57 2 40 23 39 39
-2 32 -24 -4 -36 -2 -36 6 0 6 11 11 24 11 13 0 29 7 36 15 19 23 -5 45 -51
45 -30 0 -42 -5 -55 -25z m66 -10 c0 -8 -4 -15 -9 -15 -13 0 -22 16 -14 24 11
11 23 6 23 -9z"/>
<path d="M1014 1094 c-16 -23 -16 -29 -3 -52 20 -36 63 -48 94 -28 35 23 31
36 -10 29 -23 -4 -35 -2 -35 6 0 6 10 11 23 11 68 1 58 53 -11 58 -35 3 -43
-1 -58 -24z m66 -9 c0 -8 -4 -15 -10 -15 -5 0 -10 7 -10 15 0 8 5 15 10 15 6
0 10 -7 10 -15z"/>
<path d="M1284 1106 c-3 -8 -4 -31 -2 -52 2 -31 7 -40 25 -42 19 -3 22 2 25
35 3 33 6 38 28 38 15 0 25 6 25 15 0 20 -93 26 -101 6z"/>
<path d="M1416 1104 c-11 -10 -16 -28 -14 -48 4 -39 45 -62 86 -48 33 11 44
43 13 35 -12 -3 -29 -2 -38 3 -14 6 -10 9 17 13 29 5 35 10 35 31 0 22 -5 25
-41 28 -29 2 -47 -2 -58 -14z m56 -26 c-15 -15 -26 -4 -18 18 5 13 9 15 18 6
9 -9 9 -15 0 -24z"/>
<path d="M1566 1104 c-11 -10 -16 -28 -14 -48 4 -39 45 -62 86 -48 33 11 44
43 13 35 -12 -3 -29 -2 -38 3 -14 6 -10 9 17 13 29 5 35 10 35 31 0 22 -5 25
-41 28 -29 2 -47 -2 -58 -14z m56 -26 c-15 -15 -26 -4 -18 18 5 13 9 15 18 6
9 -9 9 -15 0 -24z"/>
<path d="M232 1103 c-7 -3 -18 -16 -23 -30 -15 -40 12 -73 58 -73 33 0 35 1
19 13 -26 19 -18 61 12 65 13 2 21 9 19 15 -4 13 -63 20 -85 10z"/>
<path d="M453 1033 c-19 -7 -16 -21 6 -28 27 -8 34 -34 16 -61 -15 -24 -15
-24 18 -24 42 0 57 15 57 56 0 48 -49 77 -97 57z"/>
<path d="M232 950 c-33 -14 -47 -57 -27 -86 18 -28 61 -42 78 -25 8 8 8 11 0
11 -15 0 -25 29 -18 51 4 11 15 19 26 19 26 0 24 26 -3 34 -28 7 -27 7 -56 -4z"/>
</g>
</svg>
